<?xml version="1.0" encoding="UTF-8"?>
<svg id="Capa_2" data-name="Capa 2" xmlns="http://www.w3.org/2000/svg" viewBox="0 0 430.32 94.98">
  <defs>
    <style>
      .cls-1 {
        fill: #fff;
      }

      .cls-1, .cls-2 {
        stroke-width: 0px;
      }

      .cls-2 {
        fill: #1dec80;
      }
    </style>
  </defs>
  <g id="Capa_1-2" data-name="Capa 1">
    <g>
      <path class="cls-2" d="M430.32,7.45c0,1.85-.92,2.75-2.79,2.75h-3.27c-1.85,0-2.77-.92-2.77-2.79V3.39c0-1.86.92-2.81,2.77-2.81h3.27c1.86,0,2.79.94,2.79,2.81v4.05ZM424.36,1.61c-1.4,0-1.86.53-1.86,1.88v3.83c0,1.25.46,1.86,1.64,1.86h3.39c1.3,0,1.78-.63,1.78-1.83v-3.87c0-1.25-.5-1.88-1.78-1.88h-3.17ZM427.97,4.71c0,.53-.33.91-.99.98l1.03,2.09h-1.01l-.89-1.98h-1.23v1.98h-.87V2.69h2.57c.94,0,1.4.39,1.4,1.13v.89ZM424.88,3.6v1.39h1.81c.26,0,.39-.14.39-.41v-.56c0-.27-.17-.41-.51-.41h-1.69Z"/>
      <path class="cls-2" d="M22.8,74.8c-7.46,0-13.17-1.56-16.97-4.65-3.87-3.15-5.83-7.9-5.83-14.12V19.39c0-6.18,1.96-10.91,5.83-14.04C9.63,2.28,15.34.72,22.8.72h71.65v10.27c0,4.86-3.95,8.81-8.81,8.81H22.8c-2.6,0-2.82,1.18-2.82,2.28v31.26c0,1.15.22,2.37,2.82,2.37h63.11c4.86,0,8.81,3.95,8.81,8.81v10.27H22.8Z"/>
      <path class="cls-2" d="M133.62,74.8c-9.25,0-16.32-2.01-21.01-5.98-4.75-4.02-7.16-10.06-7.16-17.98v-26.07c0-7.95,2.41-14.03,7.16-18.05,4.69-3.98,11.76-6,21.01-6h38.51c9.25,0,16.32,2.02,21.02,6,4.75,4.03,7.16,10.1,7.16,18.05v26.07c0,7.91-2.41,13.96-7.16,17.98-4.7,3.97-11.77,5.98-21.01,5.98h-38.51ZM133.62,19.8c-7.35,0-8.2,2.84-8.2,4.97v26.07c0,1.21,0,4.88,8.2,4.88h38.51c8.2,0,8.2-3.67,8.2-4.88v-26.07c0-2.13-.85-4.97-8.2-4.97h-38.51Z"/>
      <path class="cls-2" d="M403.22,0c-5.25,0-9.53,4.27-9.53,9.53v44.89c0,.15-.02.2-.02.2,0,0-.39.38-2.08.38h-49.41c-2.2,0-2.2-.53-2.2-.76V9.53c0-5.25-4.27-9.53-9.53-9.53h-11.79v56.03c0,6.45,2.05,11.38,6.1,14.67,3.93,3.19,9.78,4.81,17.42,4.81h49.41c10.73,0,23.51-3.35,23.51-19.3V0h-11.88Z"/>
      <path class="cls-1" d="M234.39,94.98c-.85,0-1.67-.33-2.31-.92-9.4-8.83-16.49-15.44-19.46-18.13l-.04-.03-.04-.03c-.43-.29-.82-.63-1.15-1.02l-.04-.04h0c-.49-.6-.71-1.13-.79-1.33v-8.94c0-4.86,3.95-8.81,8.81-8.81h63.11c2.6,0,2.82-1.22,2.82-2.37v-31.26c0-1.1-.22-2.28-2.82-2.28h-62.84c-4.86,0-8.81-3.95-8.81-8.81V.72h71.65c7.46,0,13.17,1.56,16.96,4.64,3.87,3.14,5.83,7.86,5.83,14.04v36.64c0,6.22-1.96,10.97-5.83,14.12-3.79,3.08-9.5,4.65-16.97,4.65h-44.69v16.79c0,1.88-1.53,3.4-3.41,3.4Z"/>
    </g>
  </g>
</svg>