<svg xmlns="http://www.w3.org/2000/svg" width="1855" height="409" viewBox="0 0 1855 409" fill="none"><path d="M1854.89 32.1066C1854.89 40.0639 1850.93 43.935 1842.87 43.935H1828.78C1820.81 43.935 1816.84 39.9779 1816.84 31.9346V14.6436C1816.84 6.6433 1820.81 2.55713 1828.78 2.55713H1842.87C1850.88 2.55713 1854.89 6.60029 1854.89 14.6436V32.0636V32.1066ZM1829.25 7.03042C1823.22 7.03042 1821.24 9.31007 1821.24 15.1167V31.5905C1821.24 36.967 1823.22 39.5908 1828.3 39.5908H1842.91C1848.51 39.5908 1850.58 36.881 1850.58 31.7195V15.0737C1850.58 9.69718 1848.43 6.9874 1842.91 6.9874H1829.25V7.03042ZM1844.81 20.3642C1844.81 22.6439 1843.39 24.2784 1840.54 24.5795L1844.98 33.569H1840.63L1836.79 25.0526H1831.49V33.569H1827.74V11.6327H1838.82C1842.87 11.6327 1844.85 13.3102 1844.85 16.4931V20.3212L1844.81 20.3642ZM1831.45 15.5899V21.5686H1839.25C1840.37 21.5686 1840.93 20.9664 1840.93 19.8051V17.3964C1840.93 16.2351 1840.2 15.6329 1838.73 15.6329H1831.45V15.5899Z" fill="#1DEC80"></path><path d="M98.7606 321.795C66.6131 321.795 42.0069 315.085 25.6315 301.794C8.9545 288.245 0.50824 267.814 0.50824 241.061V83.4633C0.50824 56.8816 8.9545 36.5368 25.6315 23.0739C42.0069 9.86911 66.6131 3.15918 98.7606 3.15918H407.523V47.3329C407.523 68.2369 390.501 85.2268 369.558 85.2268H98.7606C87.5564 85.2268 86.6083 90.3023 86.6083 95.0336V229.49C86.6083 234.437 87.5564 239.684 98.7606 239.684H370.721C391.665 239.684 408.687 256.674 408.687 277.578V321.752H98.7606V321.795Z" fill="#1DEC80"></path><path d="M576.319 321.795C536.458 321.795 505.991 313.149 485.78 296.073C465.311 278.782 454.925 252.803 454.925 218.737V106.604C454.925 72.4091 465.311 46.2576 485.78 28.9666C505.991 11.8477 536.458 3.15918 576.319 3.15918H742.27C782.132 3.15918 812.598 11.8477 832.852 28.9666C853.321 46.3006 863.707 72.4091 863.707 106.604V218.737C863.707 252.76 853.321 278.782 832.852 296.073C812.598 313.149 782.132 321.795 742.313 321.795H576.362H576.319ZM576.319 85.2268C544.645 85.2268 540.982 97.4423 540.982 106.604V218.737C540.982 223.942 540.982 239.727 576.319 239.727H742.27C777.607 239.727 777.607 223.942 777.607 218.737V106.604C777.607 97.4423 773.944 85.2268 742.27 85.2268H576.319Z" fill="#1DEC80"></path><path d="M1738.11 0.0620117C1715.49 0.0620117 1697.04 18.4283 1697.04 41.0528V234.135C1697.04 234.781 1696.96 234.996 1696.96 234.996C1696.96 234.996 1695.28 236.63 1687.99 236.63H1475.07C1465.59 236.63 1465.59 234.35 1465.59 233.361V41.0528C1465.59 18.4713 1447.19 0.0620117 1424.52 0.0620117H1373.71V241.06C1373.71 268.803 1382.55 290.008 1400 304.16C1416.94 317.881 1442.15 324.849 1475.07 324.849H1687.99C1734.23 324.849 1789.3 310.439 1789.3 241.835V0.0620117H1738.11Z" fill="#1DEC80"></path><path d="M1010.57 408.594C1006.91 408.594 1003.37 407.174 1000.61 404.637C960.106 366.657 929.553 338.226 916.755 326.655L916.582 326.526L916.41 326.397C914.557 325.15 912.876 323.687 911.454 322.01L911.282 321.838C909.17 319.257 908.222 316.977 907.877 316.117V277.664C907.877 256.76 924.899 239.77 945.842 239.77H1217.8C1229.01 239.77 1229.96 234.523 1229.96 229.576V95.1196C1229.96 90.3883 1229.01 85.3128 1217.8 85.3128H947.006C926.063 85.3128 909.041 68.3229 909.041 47.4189V3.15918H1217.8C1249.95 3.15918 1274.56 9.86911 1290.89 23.1169C1307.57 36.6228 1316.01 56.9247 1316.01 83.5063V241.104C1316.01 267.857 1307.57 288.288 1290.89 301.837C1274.56 315.085 1249.95 321.838 1217.76 321.838H1025.18V394.056C1025.18 402.142 1018.58 408.68 1010.48 408.68L1010.57 408.594Z" fill="white"></path></svg>